<?xml version="1.0" encoding="utf-8"?>
<!-- Generator: Adobe Illustrator 16.0.0, SVG Export Plug-In . SVG Version: 6.00 Build 0)  -->
<!DOCTYPE svg PUBLIC "-//W3C//DTD SVG 1.1//EN" "http://www.w3.org/Graphics/SVG/1.1/DTD/svg11.dtd">
<svg version="1.1" id="Layer_1" xmlns="http://www.w3.org/2000/svg" xmlns:xlink="http://www.w3.org/1999/xlink" x="0px" y="0px"
	 width="48px" height="48px" viewBox="0 0 48 48" enable-background="new 0 0 48 48" xml:space="preserve">
<g id="Dash_Circle">
	<path id="Circle" fill="#2075BC" d="M46.314,29.564c-3.072,12.312-15.554,19.811-27.879,16.753
		C6.111,43.232-1.386,30.748,1.689,18.435C4.764,6.122,17.242-1.376,29.561,1.684C41.881,4.768,49.38,17.24,46.314,29.564z"/>
	<path id="D" fill="#FFFFFF" d="M39.537,18.024c-0.062-0.578-0.216-1.097-0.463-1.503c-0.293-0.464-0.656-0.812-1.149-1.042
		c-0.469-0.27-0.994-0.401-1.614-0.401H15.25l-1.501,4.566H32.77l-3.007,9.193h-1.39H17.346h-6.609l-1.498,4.566h21.103
		c0.578,0,1.215-0.146,1.851-0.401c0.647-0.29,1.272-0.638,1.848-1.081c0.536-0.422,1.041-0.946,1.483-1.523
		c0.428-0.578,0.748-1.159,0.946-1.795l2.839-8.724C39.535,19.239,39.608,18.602,39.537,18.024z"/>
	<polygon id="_x2D_" fill="#FFFFFF" points="21.26,22.121 9.988,22.121 8.514,26.361 19.818,26.361 	"/>
</g>
</svg>
