<?xml version="1.0" encoding="UTF-8" standalone="no"?>
<svg
   xmlns:dc="http://purl.org/dc/elements/1.1/"
   xmlns:cc="http://creativecommons.org/ns#"
   xmlns:rdf="http://www.w3.org/1999/02/22-rdf-syntax-ns#"
   xmlns:svg="http://www.w3.org/2000/svg"
   xmlns="http://www.w3.org/2000/svg"
   viewBox="0 0 128 128"
   height="128"
   width="128"
   xml:space="preserve"
   version="1.1"
   id="svg5865"><metadata
     id="metadata5871"><rdf:RDF><cc:Work
         rdf:about=""><dc:format>image/svg+xml</dc:format><dc:type
           rdf:resource="http://purl.org/dc/dcmitype/StillImage" /><dc:title></dc:title></cc:Work></rdf:RDF></metadata><defs
     id="defs5869" /><g
     transform="matrix(1.25,0,0,-1.25,-18.692874,147.62863)"
     id="g5873"><path
       id="path5885"
       d="m 66.154135,15.7029 c 28.277006,0 51.200165,22.92217 51.200165,51.200165 0,28.277006 -22.923159,51.200495 -51.200165,51.200495 C 37.877128,118.10356 14.9543,95.180071 14.9543,66.903065 14.9543,38.62507 37.877128,15.7029 66.154135,15.7029"
       style="fill:#800080;fill-opacity:1;fill-rule:nonzero;stroke:none" /><path
       d="m 45.189295,71.587797 c -5.264166,0 -6.018545,-3.429984 -6.516738,-5.503536 -0.652169,-2.713852 -0.866481,-3.813768 -0.866481,-3.813768 l 20.576935,0 c 5.263837,0 6.018215,3.430314 6.516409,5.503866 0.652498,2.714511 0.86681,3.813438 0.86681,3.813438 l -20.576935,0 z m 28.767286,17.725034 -20.096216,0 -1.664711,-9.307742 18.134106,-0.02275 c 8.931542,0.003 11.571867,-3.241719 11.496364,-8.621284 -0.03891,-2.757703 -1.234109,-7.418828 -1.750436,-8.930553 -1.376873,-4.02742 -4.202827,-8.623262 -14.803695,-8.606776 l -17.628,0.0079 -1.668338,-9.316974 20.051376,0 c 7.071972,0 10.078606,0.822299 13.265923,2.294789 7.061091,3.260842 11.262599,10.230933 12.946433,19.326341 2.506463,13.542221 -0.615571,23.177036 -18.282806,23.177036"
       style="fill:#ffffff;fill-opacity:1;fill-rule:nonzero;stroke:none"
       id="path5893" /></g></svg>