<?xml version="1.0" encoding="UTF-8" standalone="no"?>
<!-- Created with Inkscape (http://www.inkscape.org/) -->

<svg
   xmlns:dc="http://purl.org/dc/elements/1.1/"
   xmlns:cc="http://creativecommons.org/ns#"
   xmlns:rdf="http://www.w3.org/1999/02/22-rdf-syntax-ns#"
   xmlns:svg="http://www.w3.org/2000/svg"
   xmlns="http://www.w3.org/2000/svg"
   xmlns:sodipodi="http://sodipodi.sourceforge.net/DTD/sodipodi-0.dtd"
   xmlns:inkscape="http://www.inkscape.org/namespaces/inkscape"
   width="48"
   height="48"
   id="svg6255"
   version="1.1"
   inkscape:version="0.48.4 r9939"
   sodipodi:docname="New document 4">
  <defs
     id="defs6257" />
  <sodipodi:namedview
     id="base"
     pagecolor="#ffffff"
     bordercolor="#666666"
     borderopacity="1.0"
     inkscape:pageopacity="0.0"
     inkscape:pageshadow="2"
     inkscape:zoom="1.979899"
     inkscape:cx="2.5872951"
     inkscape:cy="92.342301"
     inkscape:document-units="px"
     inkscape:current-layer="layer1"
     showgrid="false"
     inkscape:window-width="974"
     inkscape:window-height="704"
     inkscape:window-x="430"
     inkscape:window-y="148"
     inkscape:window-maximized="0" />
  <metadata
     id="metadata6260">
    <rdf:RDF>
      <cc:Work
         rdf:about="">
        <dc:format>image/svg+xml</dc:format>
        <dc:type
           rdf:resource="http://purl.org/dc/dcmitype/StillImage" />
        <dc:title></dc:title>
      </cc:Work>
    </rdf:RDF>
  </metadata>
  <g
     inkscape:label="Layer 1"
     inkscape:groupmode="layer"
     id="layer1"
     transform="translate(0,-1004.3622)">
    <g
       transform="matrix(0.46000109,0,0,0.46000109,-186.37864,957.33391)"
       id="g6230">
      <g
         transform="matrix(1.25,0,0,-1.25,505.85248,166.50621)"
         id="g4133">
        <path
           id="path4135"
           style="fill:#1c75bc;fill-opacity:1;fill-rule:nonzero;stroke:none"
           d="m 0,0 c -5.342,-21.411 -27.05,-34.453 -48.485,-29.134 -21.434,5.363 -34.471,27.075 -29.122,48.489 5.346,21.415 27.046,34.456 48.469,29.133 C -7.71,43.125 5.332,21.435 0,0"
           inkscape:connector-curvature="0" />
      </g>
      <g
         transform="matrix(1.25,0,0,-1.25,491.12111,141.41708)"
         id="g4137">
        <path
           id="path4139"
           style="fill:#ffffff;fill-opacity:1;fill-rule:nonzero;stroke:none"
           d="m 0,0 c -0.107,1.005 -0.376,1.907 -0.805,2.613 -0.509,0.808 -1.142,1.412 -2.001,1.813 -0.813,0.47 -1.727,0.698 -2.805,0.698 l -36.629,0 -2.611,-7.941 33.081,0 -5.23,-15.989 -2.417,0 -19.178,0 -11.494,0 -2.604,-7.941 36.701,0 c 1.005,0 2.112,0.253 3.218,0.698 1.125,0.505 2.213,1.109 3.212,1.881 0.933,0.732 1.811,1.646 2.582,2.649 0.744,1.004 1.3,2.014 1.646,3.122 l 4.936,15.171 C -0.004,-2.114 0.122,-1.005 0,0"
           inkscape:connector-curvature="0" />
      </g>
      <g
         transform="matrix(1.25,0,0,-1.25,451.38724,150.32333)"
         id="g4141">
        <path
           id="path4143"
           style="fill:#ffffff;fill-opacity:1;fill-rule:nonzero;stroke:none"
           d="m 0,0 -19.604,0 -2.564,-7.376 19.659,0 L 0,0 z"
           inkscape:connector-curvature="0" />
      </g>
    </g>
  </g>
</svg>
