<?xml version="1.0" encoding="UTF-8" standalone="no"?>
<svg
   xmlns:dc="http://purl.org/dc/elements/1.1/"
   xmlns:cc="http://creativecommons.org/ns#"
   xmlns:rdf="http://www.w3.org/1999/02/22-rdf-syntax-ns#"
   xmlns:svg="http://www.w3.org/2000/svg"
   xmlns="http://www.w3.org/2000/svg"
   xmlns:sodipodi="http://sodipodi.sourceforge.net/DTD/sodipodi-0.dtd"
   xmlns:inkscape="http://www.inkscape.org/namespaces/inkscape"
   version="1.1"
   width="37"
   height="48"
   viewBox="0 0 1 1"
   preserveAspectRatio="xMidYMid"
   id="svg6362"
   inkscape:version="0.48.4 r9939"
   sodipodi:docname="stat_notify_received-xhdpi.svg">
  <metadata
     id="metadata6370">
    <rdf:RDF>
      <cc:Work
         rdf:about="">
        <dc:format>image/svg+xml</dc:format>
        <dc:type
           rdf:resource="http://purl.org/dc/dcmitype/StillImage" />
        <dc:title></dc:title>
      </cc:Work>
    </rdf:RDF>
  </metadata>
  <defs
     id="defs6368" />
  <sodipodi:namedview
     pagecolor="#ffffff"
     bordercolor="#666666"
     borderopacity="1"
     objecttolerance="10"
     gridtolerance="10"
     guidetolerance="10"
     inkscape:pageopacity="0"
     inkscape:pageshadow="2"
     inkscape:window-width="1374"
     inkscape:window-height="903"
     id="namedview6366"
     showgrid="false"
     inkscape:zoom="4.9166667"
     inkscape:cx="-5.8050847"
     inkscape:cy="30.456158"
     inkscape:window-x="0"
     inkscape:window-y="0"
     inkscape:window-maximized="0"
     inkscape:current-layer="svg6362" />
  <g
     transform="matrix(0.00684697,0,0,0.00684697,-6.1111465,0.10667553)"
     id="g6490"
     style="fill:#ffffff">
    <g
       transform="matrix(1.25,0,0,-1.25,1034.1443,29.83254)"
       id="g5195"
       style="fill:#ffffff">
      <path
         id="path5197"
         style="fill:#ffffff;fill-opacity:1;fill-rule:nonzero;stroke:none"
         d="m 0,0 c -0.088,2.047 -0.806,3.768 -1.654,5.325 -0.894,1.646 -2.153,2.876 -4.087,3.694 -1.642,0.869 -3.363,1.303 -5.725,1.303 l -74.588,0 -5.334,-16.061 67.537,0 -10.67,-32.693 -4.903,0 -39.227,0 -23.388,0 -5.324,-16.07 74.904,0 c 2.053,0 4.172,0.469 6.561,1.32 2.15,1.139 4.493,2.379 6.55,3.993 1.741,1.328 3.688,3.29 5.296,5.35 1.333,2.052 2.53,4.104 3.314,6.24 l 9.912,31.037 C -0.005,-4.422 0.342,-2.047 0,0"
         inkscape:connector-curvature="0" />
    </g>
    <g
       transform="matrix(1.25,0,0,-1.25,953.20565,48.156415)"
       id="g5199"
       style="fill:#ffffff">
      <path
         id="path5201"
         style="fill:#ffffff;fill-opacity:1;fill-rule:nonzero;stroke:none"
         d="m 0,0 -39.837,0 -5.281,-14.854 40.119,0 L 0,0 z"
         inkscape:connector-curvature="0" />
    </g>
  </g>
</svg>
